{
  "accessors": [
    {
      "bufferView": 0,
      "byteOffset": 0,
      "componentType": 5123,
      "count": 2400,
      "max": [
        517
      ],
      "min": [
        0
      ],
      "type": "SCALAR"
    },
    {
      "bufferView": 1,
      "byteOffset": 0,
      "componentType": 5126,
      "count": 518,
      "max": [
        1.5000001192092896,
        0.5000000596046448,
        1.5000003576278687
      ],
      "min": [
        -1.5000004768371582,
        -0.5000002384185791,
        -1.5000008344650269
      ],
      "type": "VEC3"
    },
    {
      "bufferView": 2,
      "byteOffset": 0,
      "componentType": 5126,
      "count": 518,
      "type": "VEC3"
    },
    {
      "bufferView": 3,
      "byteOffset": 0,
      "componentType": 5126,
      "count": 518,
      "type": "VEC2"
    }
  ],
  "asset": {
    "generator": "maya-glTFExport",
    "version": "2.0"
  },
  "bufferViews": [
    {
      "buffer": 0,
      "byteLength": 4800,
      "byteOffset": 0,
      "target": 34963
    },
    {
      "buffer": 0,
      "byteLength": 6216,
      "byteOffset": 4800,
      "target": 34962
    },
    {
      "buffer": 0,
      "byteLength": 6216,
      "byteOffset": 11016,
      "target": 34962
    },
    {
      "buffer": 0,
      "byteLength": 4144,
      "byteOffset": 17232,
      "target": 34962
    }
  ],
  "buffers": [
    {
      "uri": "donuttest01_data.bin",
      "byteLength": 21376
    }
  ],
  "materials": [
    {
      "alphaMode": "OPAQUE",
      "pbrMetallicRoughness": {
        "baseColorFactor": [
          0.5,
          0.5,
          0.5,
          1
        ],
        "metallicFactor": 0,
        "roughnessFactor": 1
      }
    }
  ],
  "meshes": [
    {
      "primitives": [
        {
          "attributes": {
            "NORMAL": 2,
            "POSITION": 1,
            "TEXCOORD_0": 3
          },
          "indices": 0,
          "material": 0,
          "mode": 4
        }
      ]
    }
  ],
  "nodes": [
    {
      "mesh": 0,
      "rotation": [
        0,
        0,
        -0.26662164372561153,
        0.9638012757291065
      ],
      "scale": [
        12.237672526365241,
        12.237672526365241,
        12.237672526365241
      ],
      "translation": [
        0,
        9.46184612156113,
        0
      ]
    }
  ],
  "scene": 0,
  "scenes": [
    {
      "name": "defaultScene",
      "nodes": [
        0
      ]
    }
  ]
}